<svg xmlns="http://www.w3.org/2000/svg" width="428" height="70" viewBox="0 0 428 70">
  <g id="Group_3" data-name="Group 3" transform="translate(0 -330)">
    <g id="Group_2" data-name="Group 2" transform="translate(62 -98)">
      <rect id="Rectangle_1" data-name="Rectangle 1" width="428" height="70" transform="translate(-62 428)" fill="#fff"/>
    </g>
    <g id="Ellipse_1" data-name="Ellipse 1" transform="translate(41 340)" fill="#fff" stroke="#8a2be2" stroke-width="1">
      <circle cx="17.5" cy="17.5" r="17.5" stroke="none"/>
      <circle cx="17.5" cy="17.5" r="17" fill="none"/>
    </g>
    <circle id="Ellipse_2" data-name="Ellipse 2" cx="17.5" cy="17.5" r="17.5" transform="translate(197 340)" fill="#8a2be2"/>
    <g id="Ellipse_3" data-name="Ellipse 3" transform="translate(353 340)" fill="#fff" stroke="#8a2be2" stroke-width="1">
      <circle cx="17.5" cy="17.5" r="17.5" stroke="none"/>
      <circle cx="17.5" cy="17.5" r="17" fill="none"/>
    </g>
    <text id="Address" transform="translate(27 389)" fill="#707070" font-size="18" font-family="SegoeUI, Segoe UI"><tspan x="0" y="0">Address</tspan></text>
    <text id="Order_Summary" data-name="Order Summary" transform="translate(151 389)" font-size="18" font-family="SegoeUI, Segoe UI"><tspan x="0" y="0">Order Summary</tspan></text>
    <text id="Payment" transform="translate(336 389)" fill="#707070" font-size="18" font-family="SegoeUI, Segoe UI"><tspan x="0" y="0">Payment</tspan></text>
  </g>
  <text id="_3" data-name="3" transform="translate(365 13)" fill="#8a2be2" font-size="20" font-family="SegoeUI-Bold, Segoe UI" font-weight="700"><tspan x="0" y="22">3</tspan></text>
  <text id="_2" data-name="2" transform="translate(208 35)" fill="#fff" font-size="20" font-family="SegoeUI-Bold, Segoe UI" font-weight="700"><tspan x="0" y="0">2</tspan></text>
  <line id="Line_1" data-name="Line 1" x2="101" transform="translate(84.5 26.5)" fill="none" stroke="#8a2be2" stroke-width="1.5"/>
  <line id="Line_2" data-name="Line 2" x2="101" transform="translate(243.5 26.5)" fill="none" stroke="#707070" stroke-width="1"/>
  <line id="Line_3" data-name="Line 3" x2="8" y2="7" transform="translate(48 29)" fill="none" stroke="#8a2be2" stroke-width="2"/>
  <line id="Line_4" data-name="Line 4" y1="15" x2="13" transform="translate(56 20)" fill="none" stroke="#8a2be2" stroke-width="2"/>
</svg>
